# xmcd CD database file
#
# Track frame offsets:
#	150
#	1149
#	33259
#	34381
#	67184
#	95952
#	124520
#
# Disc length: 2040 seconds
#
# Revision: 0
# Processed by: cddbd v1.5.1PL2 Copyright (c) Steve Scherf et al.
# Submitted via: CDex 1.51
#
DISCID=5a07f607
DTITLE=native - un mot pour exprimer
DYEAR=2002
DGENRE=Jazz
TTITLE0=Introducing
TTITLE1=Diva
TTITLE2=Foot Step
TTITLE3=Parma
TTITLE4=Un Mot Pour Exprimer
TTITLE5=No Matter What I Say
TTITLE6=Diva Remixed by DJ Numata and WAKASAN
EXTD=YEAR: 2002
EXTT0=
EXTT1=
EXTT2=
EXTT3=
EXTT4=
EXTT5=
EXTT6=
PLAYORDER=
